<mxfile host="app.diagrams.net" agent="Mozilla/5.0 (Windows NT 10.0; Win64; x64) AppleWebKit/537.36 (KHTML, like Gecko) Chrome/131.0.0.0 Safari/537.36 Edg/131.0.0.0" version="25.0.3">
  <diagram id="C5RBs43oDa-KdzZeNtuy" name="Page-1">
    <mxGraphModel dx="1699" dy="477" grid="1" gridSize="10" guides="1" tooltips="1" connect="1" arrows="1" fold="1" page="1" pageScale="1" pageWidth="827" pageHeight="1169" math="0" shadow="0">
      <root>
        <mxCell id="WIyWlLk6GJQsqaUBKTNV-0" />
        <mxCell id="WIyWlLk6GJQsqaUBKTNV-1" parent="WIyWlLk6GJQsqaUBKTNV-0" />
        <mxCell id="mvioNwK95yMqdUQ73LqQ-36" value="" style="swimlane;fontFamily=Sarabun;fontSource=https%3A%2F%2Ffonts.googleapis.com%2Fcss%3Ffamily%3DSarabun;" parent="WIyWlLk6GJQsqaUBKTNV-1" vertex="1">
          <mxGeometry x="-740" y="60" width="640" height="1670" as="geometry" />
        </mxCell>
        <mxCell id="xE9lvKekpY_54vqVYkne-0" style="edgeStyle=orthogonalEdgeStyle;rounded=0;orthogonalLoop=1;jettySize=auto;html=1;" parent="mvioNwK95yMqdUQ73LqQ-36" source="mvioNwK95yMqdUQ73LqQ-35" edge="1">
          <mxGeometry relative="1" as="geometry">
            <mxPoint x="320" y="160" as="targetPoint" />
          </mxGeometry>
        </mxCell>
        <mxCell id="mvioNwK95yMqdUQ73LqQ-35" value="&lt;font data-font-src=&quot;https://fonts.googleapis.com/css?family=Sarabun&quot; face=&quot;Sarabun&quot;&gt;Start&lt;/font&gt;" style="ellipse;whiteSpace=wrap;html=1;" parent="mvioNwK95yMqdUQ73LqQ-36" vertex="1">
          <mxGeometry x="255" y="40" width="130" height="30" as="geometry" />
        </mxCell>
        <mxCell id="xE9lvKekpY_54vqVYkne-4" style="edgeStyle=orthogonalEdgeStyle;rounded=0;orthogonalLoop=1;jettySize=auto;html=1;" parent="mvioNwK95yMqdUQ73LqQ-36" source="xE9lvKekpY_54vqVYkne-1" edge="1">
          <mxGeometry relative="1" as="geometry">
            <mxPoint x="320" y="330" as="targetPoint" />
          </mxGeometry>
        </mxCell>
        <mxCell id="xE9lvKekpY_54vqVYkne-1" value="Declare&lt;div&gt;employee&lt;/div&gt;&lt;div&gt;is struct Person&lt;/div&gt;" style="rounded=0;whiteSpace=wrap;html=1;" parent="mvioNwK95yMqdUQ73LqQ-36" vertex="1">
          <mxGeometry x="260" y="160" width="120" height="60" as="geometry" />
        </mxCell>
        <mxCell id="S_kWoNRvliWAWjXPdE6a-2" style="edgeStyle=orthogonalEdgeStyle;rounded=0;orthogonalLoop=1;jettySize=auto;html=1;" edge="1" parent="mvioNwK95yMqdUQ73LqQ-36" source="xE9lvKekpY_54vqVYkne-5">
          <mxGeometry relative="1" as="geometry">
            <mxPoint x="320" y="620" as="targetPoint" />
          </mxGeometry>
        </mxCell>
        <mxCell id="xE9lvKekpY_54vqVYkne-5" value="Read&lt;div&gt;employee name&lt;/div&gt;&lt;div&gt;employee salary&lt;/div&gt;" style="shape=parallelogram;perimeter=parallelogramPerimeter;whiteSpace=wrap;html=1;fixedSize=1;" parent="mvioNwK95yMqdUQ73LqQ-36" vertex="1">
          <mxGeometry x="233.75" y="460" width="172.5" height="90" as="geometry" />
        </mxCell>
        <mxCell id="xE9lvKekpY_54vqVYkne-7" style="edgeStyle=orthogonalEdgeStyle;rounded=0;orthogonalLoop=1;jettySize=auto;html=1;" parent="mvioNwK95yMqdUQ73LqQ-36" source="xE9lvKekpY_54vqVYkne-6" edge="1">
          <mxGeometry relative="1" as="geometry">
            <mxPoint x="555" y="110" as="targetPoint" />
          </mxGeometry>
        </mxCell>
        <mxCell id="xE9lvKekpY_54vqVYkne-6" value="&lt;font data-font-src=&quot;https://fonts.googleapis.com/css?family=Sarabun&quot; face=&quot;Sarabun&quot;&gt;struct Employee&lt;/font&gt;" style="ellipse;whiteSpace=wrap;html=1;" parent="mvioNwK95yMqdUQ73LqQ-36" vertex="1">
          <mxGeometry x="490" y="40" width="130" height="30" as="geometry" />
        </mxCell>
        <mxCell id="xE9lvKekpY_54vqVYkne-9" style="edgeStyle=orthogonalEdgeStyle;rounded=0;orthogonalLoop=1;jettySize=auto;html=1;" parent="mvioNwK95yMqdUQ73LqQ-36" source="xE9lvKekpY_54vqVYkne-8" edge="1">
          <mxGeometry relative="1" as="geometry">
            <mxPoint x="555" y="200" as="targetPoint" />
          </mxGeometry>
        </mxCell>
        <mxCell id="xE9lvKekpY_54vqVYkne-8" value="Name&lt;div&gt;Age&lt;/div&gt;&lt;div&gt;Sex&lt;/div&gt;&lt;div&gt;Score&lt;/div&gt;" style="rounded=0;whiteSpace=wrap;html=1;" parent="mvioNwK95yMqdUQ73LqQ-36" vertex="1">
          <mxGeometry x="495" y="110" width="120" height="60" as="geometry" />
        </mxCell>
        <mxCell id="xE9lvKekpY_54vqVYkne-10" value="&lt;font face=&quot;Sarabun&quot;&gt;Return&lt;/font&gt;" style="ellipse;whiteSpace=wrap;html=1;" parent="mvioNwK95yMqdUQ73LqQ-36" vertex="1">
          <mxGeometry x="490" y="200" width="130" height="30" as="geometry" />
        </mxCell>
        <mxCell id="xE9lvKekpY_54vqVYkne-25" style="edgeStyle=orthogonalEdgeStyle;rounded=0;orthogonalLoop=1;jettySize=auto;html=1;" parent="mvioNwK95yMqdUQ73LqQ-36" edge="1">
          <mxGeometry relative="1" as="geometry">
            <mxPoint x="316.25" y="1509.9999999999998" as="targetPoint" />
            <mxPoint x="316.294117647059" y="1420" as="sourcePoint" />
          </mxGeometry>
        </mxCell>
        <mxCell id="xE9lvKekpY_54vqVYkne-26" value="&lt;font data-font-src=&quot;https://fonts.googleapis.com/css?family=Sarabun&quot; face=&quot;Sarabun&quot;&gt;End&lt;/font&gt;" style="ellipse;whiteSpace=wrap;html=1;" parent="mvioNwK95yMqdUQ73LqQ-36" vertex="1">
          <mxGeometry x="250" y="1510" width="130" height="30" as="geometry" />
        </mxCell>
        <mxCell id="S_kWoNRvliWAWjXPdE6a-1" style="edgeStyle=orthogonalEdgeStyle;rounded=0;orthogonalLoop=1;jettySize=auto;html=1;" edge="1" parent="mvioNwK95yMqdUQ73LqQ-36" source="S_kWoNRvliWAWjXPdE6a-0" target="xE9lvKekpY_54vqVYkne-5">
          <mxGeometry relative="1" as="geometry" />
        </mxCell>
        <mxCell id="S_kWoNRvliWAWjXPdE6a-13" style="edgeStyle=orthogonalEdgeStyle;rounded=0;orthogonalLoop=1;jettySize=auto;html=1;entryX=0.5;entryY=0;entryDx=0;entryDy=0;" edge="1" parent="mvioNwK95yMqdUQ73LqQ-36" source="S_kWoNRvliWAWjXPdE6a-0" target="S_kWoNRvliWAWjXPdE6a-25">
          <mxGeometry relative="1" as="geometry">
            <mxPoint x="520" y="933" as="targetPoint" />
            <Array as="points">
              <mxPoint x="540" y="370" />
              <mxPoint x="540" y="1220" />
            </Array>
          </mxGeometry>
        </mxCell>
        <mxCell id="S_kWoNRvliWAWjXPdE6a-0" value="userinput != 1" style="rhombus;whiteSpace=wrap;html=1;" vertex="1" parent="mvioNwK95yMqdUQ73LqQ-36">
          <mxGeometry x="279" y="330" width="80" height="80" as="geometry" />
        </mxCell>
        <mxCell id="S_kWoNRvliWAWjXPdE6a-19" style="edgeStyle=orthogonalEdgeStyle;rounded=0;orthogonalLoop=1;jettySize=auto;html=1;" edge="1" parent="mvioNwK95yMqdUQ73LqQ-36" source="S_kWoNRvliWAWjXPdE6a-3" target="S_kWoNRvliWAWjXPdE6a-4">
          <mxGeometry relative="1" as="geometry" />
        </mxCell>
        <mxCell id="S_kWoNRvliWAWjXPdE6a-3" value="calculate&lt;div&gt;annual salary&lt;/div&gt;&lt;div&gt;tax&lt;/div&gt;" style="rounded=0;whiteSpace=wrap;html=1;" vertex="1" parent="mvioNwK95yMqdUQ73LqQ-36">
          <mxGeometry x="260" y="800" width="120" height="60" as="geometry" />
        </mxCell>
        <mxCell id="S_kWoNRvliWAWjXPdE6a-6" style="edgeStyle=orthogonalEdgeStyle;rounded=0;orthogonalLoop=1;jettySize=auto;html=1;" edge="1" parent="mvioNwK95yMqdUQ73LqQ-36" source="S_kWoNRvliWAWjXPdE6a-4">
          <mxGeometry relative="1" as="geometry">
            <mxPoint x="319" y="1060" as="targetPoint" />
          </mxGeometry>
        </mxCell>
        <mxCell id="S_kWoNRvliWAWjXPdE6a-24" style="edgeStyle=orthogonalEdgeStyle;rounded=0;orthogonalLoop=1;jettySize=auto;html=1;" edge="1" parent="mvioNwK95yMqdUQ73LqQ-36" source="S_kWoNRvliWAWjXPdE6a-4">
          <mxGeometry relative="1" as="geometry">
            <mxPoint x="140" y="970" as="targetPoint" />
          </mxGeometry>
        </mxCell>
        <mxCell id="S_kWoNRvliWAWjXPdE6a-4" value="tax &amp;gt; highest tax?" style="rhombus;whiteSpace=wrap;html=1;" vertex="1" parent="mvioNwK95yMqdUQ73LqQ-36">
          <mxGeometry x="279" y="930" width="80" height="80" as="geometry" />
        </mxCell>
        <mxCell id="S_kWoNRvliWAWjXPdE6a-21" style="edgeStyle=orthogonalEdgeStyle;rounded=0;orthogonalLoop=1;jettySize=auto;html=1;" edge="1" parent="mvioNwK95yMqdUQ73LqQ-36" source="S_kWoNRvliWAWjXPdE6a-5">
          <mxGeometry relative="1" as="geometry">
            <mxPoint x="319" y="590" as="targetPoint" />
            <Array as="points">
              <mxPoint x="141" y="1090" />
            </Array>
          </mxGeometry>
        </mxCell>
        <mxCell id="S_kWoNRvliWAWjXPdE6a-5" value="store highest tax to variable" style="rounded=0;whiteSpace=wrap;html=1;" vertex="1" parent="mvioNwK95yMqdUQ73LqQ-36">
          <mxGeometry x="259" y="1060" width="120" height="60" as="geometry" />
        </mxCell>
        <mxCell id="S_kWoNRvliWAWjXPdE6a-10" style="edgeStyle=orthogonalEdgeStyle;rounded=0;orthogonalLoop=1;jettySize=auto;html=1;entryX=0.5;entryY=0;entryDx=0;entryDy=0;" edge="1" parent="mvioNwK95yMqdUQ73LqQ-36" source="S_kWoNRvliWAWjXPdE6a-7" target="S_kWoNRvliWAWjXPdE6a-3">
          <mxGeometry relative="1" as="geometry" />
        </mxCell>
        <mxCell id="S_kWoNRvliWAWjXPdE6a-14" style="edgeStyle=orthogonalEdgeStyle;rounded=0;orthogonalLoop=1;jettySize=auto;html=1;" edge="1" parent="mvioNwK95yMqdUQ73LqQ-36" source="S_kWoNRvliWAWjXPdE6a-7">
          <mxGeometry relative="1" as="geometry">
            <mxPoint x="520" y="660" as="targetPoint" />
          </mxGeometry>
        </mxCell>
        <mxCell id="S_kWoNRvliWAWjXPdE6a-7" value="useinput == -1" style="rhombus;whiteSpace=wrap;html=1;" vertex="1" parent="mvioNwK95yMqdUQ73LqQ-36">
          <mxGeometry x="280" y="620" width="80" height="80" as="geometry" />
        </mxCell>
        <mxCell id="S_kWoNRvliWAWjXPdE6a-15" value="Yes" style="text;html=1;align=center;verticalAlign=middle;resizable=0;points=[];autosize=1;strokeColor=none;fillColor=none;" vertex="1" parent="mvioNwK95yMqdUQ73LqQ-36">
          <mxGeometry x="359" y="620" width="40" height="30" as="geometry" />
        </mxCell>
        <mxCell id="S_kWoNRvliWAWjXPdE6a-16" value="No" style="text;html=1;align=center;verticalAlign=middle;resizable=0;points=[];autosize=1;strokeColor=none;fillColor=none;" vertex="1" parent="mvioNwK95yMqdUQ73LqQ-36">
          <mxGeometry x="260" y="700" width="40" height="30" as="geometry" />
        </mxCell>
        <mxCell id="S_kWoNRvliWAWjXPdE6a-17" value="Yes" style="text;html=1;align=center;verticalAlign=middle;resizable=0;points=[];autosize=1;strokeColor=none;fillColor=none;" vertex="1" parent="mvioNwK95yMqdUQ73LqQ-36">
          <mxGeometry x="260" y="400" width="40" height="30" as="geometry" />
        </mxCell>
        <mxCell id="S_kWoNRvliWAWjXPdE6a-18" value="No" style="text;html=1;align=center;verticalAlign=middle;resizable=0;points=[];autosize=1;strokeColor=none;fillColor=none;" vertex="1" parent="mvioNwK95yMqdUQ73LqQ-36">
          <mxGeometry x="359" y="320" width="40" height="30" as="geometry" />
        </mxCell>
        <mxCell id="S_kWoNRvliWAWjXPdE6a-22" value="Yes" style="text;html=1;align=center;verticalAlign=middle;resizable=0;points=[];autosize=1;strokeColor=none;fillColor=none;" vertex="1" parent="mvioNwK95yMqdUQ73LqQ-36">
          <mxGeometry x="279" y="1010" width="40" height="30" as="geometry" />
        </mxCell>
        <mxCell id="S_kWoNRvliWAWjXPdE6a-23" value="No" style="text;html=1;align=center;verticalAlign=middle;resizable=0;points=[];autosize=1;strokeColor=none;fillColor=none;" vertex="1" parent="mvioNwK95yMqdUQ73LqQ-36">
          <mxGeometry x="366.25" y="940" width="40" height="30" as="geometry" />
        </mxCell>
        <mxCell id="S_kWoNRvliWAWjXPdE6a-25" value="Display salary per month&lt;div&gt;year&lt;/div&gt;&lt;div&gt;tax&lt;/div&gt;&lt;div&gt;highest tax&lt;/div&gt;" style="shape=parallelogram;perimeter=parallelogramPerimeter;whiteSpace=wrap;html=1;fixedSize=1;" vertex="1" parent="mvioNwK95yMqdUQ73LqQ-36">
          <mxGeometry x="220" y="1360" width="190" height="100" as="geometry" />
        </mxCell>
      </root>
    </mxGraphModel>
  </diagram>
</mxfile>
